# xmcd
#
# Track frame offsets: 
#        150
#        19483
#        39236
#        57642
#        74493
#        88961
#        104391
#        125917
#        145044
#        161886
#        183084
#        199431
#        216323
#        230589
#        248864
#        270308
#        280519
#        300279
#
# Disc length: 4271 seconds
#
# Revision: 0
# Processed by: cddbd v1.5.2PL0 Copyright (c) Steve Scherf et al.
# Submitted via: ExactAudioCopy v0.99pb4
#
DISCID=1110ad12
DTITLE=Various Artist - Step Up
DYEAR=2006
DGENRE=Hip-Hop
TTITLE0=Yung Joc Featuring 3LW - Bout It
TTITLE1=Ciara Feat. Chamillionaire - Get Up
TTITLE2=Sean Paul Feat. Keyshia Cole - (When You Gonna) Give It Up To 
TTITLE2=Me
TTITLE3=Petey Pablo - Show Me The Money
TTITLE4=Kelis - 80's Joint
TTITLE5=Samantha Jade - Step Up
TTITLE6=Chris Brown - Say Goodbye
TTITLE7=Anthony Hamilton - Dear Life
TTITLE8=Drew Sidora Featuring Mario - For The Love
TTITLE9=Clipse featuring Re-Up Gang and Roscoe P. Goldchain - Ain't Ch
TTITLE9=a
TTITLE10=YoungBloodz - I'mma Shine
TTITLE11=Dolla - Feelin' Myself
TTITLE12=Drew Sidora - 'Til The Dawn
TTITLE13=Deep Side - Lovely
TTITLE14=Gina Rene - U Must Be
TTITLE15=Jamie Scott - Made
TTITLE16=J-Kwon - Look At Me Shinin'
TTITLE17=Too $hort - Nothing Feels Better
EXTD=
EXTT0=
EXTT1=
EXTT2=
EXTT3=
EXTT4=
EXTT5=
EXTT6=
EXTT7=
EXTT8=
EXTT9=
EXTT10=
EXTT11=
EXTT12=
EXTT13=
EXTT14=
EXTT15=
EXTT16=
EXTT17=
PLAYORDER=
